<?xml version="1.0" encoding="UTF-8" standalone="no"?>
<svg
   xmlns:dc="http://purl.org/dc/elements/1.1/"
   xmlns:cc="http://creativecommons.org/ns#"
   xmlns:rdf="http://www.w3.org/1999/02/22-rdf-syntax-ns#"
   xmlns:svg="http://www.w3.org/2000/svg"
   xmlns="http://www.w3.org/2000/svg"
   width="512.0px"
   height="512.0px"
   viewBox="0 0 512.0 512.0"
   version="1.1"
   id="SVGRoot">
  <defs
     id="defs833" />
  <metadata
     id="metadata836">
    <rdf:RDF>
      <cc:Work
         rdf:about="">
        <dc:format>image/svg+xml</dc:format>
        <dc:type
           rdf:resource="http://purl.org/dc/dcmitype/StillImage" />
        <dc:title></dc:title>
      </cc:Work>
    </rdf:RDF>
  </metadata>
  <g
     id="layer2"
     style="display:inline">
    <rect
       style="fill:#ffffff;stroke:#6196ff;stroke-width:0;stroke-miterlimit:4;stroke-dasharray:none;stroke-dashoffset:10"
       id="rect843"
       width="512"
       height="512"
       x="5e-07"
       y="5e-07"
       ry="44.285713" />
  </g>
  <g
     id="layer1">
    <g
       style="opacity:1;fill:#000000;stroke-width:0.99935031;stroke-miterlimit:4;stroke-dasharray:none"
       id="g1432"
       transform="matrix(0.52727233,0.18387766,-0.17764733,0.56591183,307.71076,69.755293)">
      <g
         id="g1418"
         style="fill:#000000;stroke-width:0.99935031;stroke-miterlimit:4;stroke-dasharray:none">
        <path
           class="st0"
           d="m 332.998,291.918 c 52.2,-71.895 45.941,-173.338 -18.834,-238.123 -71.736,-71.728 -188.468,-71.728 -260.195,0 -71.746,71.745 -71.746,188.458 0,260.204 64.775,64.775 166.218,71.034 238.104,18.844 l 14.222,14.203 40.916,-40.916 z m -54.51,-13.585 c -52.144,52.134 -136.699,52.144 -188.852,0 -52.152,-52.153 -52.152,-136.717 0,-188.861 52.154,-52.144 136.708,-52.144 188.852,0 52.152,52.144 52.152,136.708 0,188.861 z"
           style="fill:#000000;stroke-width:0.99935031;stroke-miterlimit:4;stroke-dasharray:none"
           id="path1412" />
        <path
           class="st0"
           d="m 109.303,119.216 c -27.078,34.788 -29.324,82.646 -6.756,119.614 2.142,3.489 6.709,4.603 10.208,2.46 3.49,-2.142 4.594,-6.709 2.462,-10.198 v 0.008 c -19.387,-31.7 -17.45,-72.962 5.782,-102.771 2.526,-3.228 1.946,-7.898 -1.292,-10.405 -3.227,-2.525 -7.896,-1.945 -10.404,1.292 z"
           style="fill:#000000;stroke-width:0.99935031;stroke-miterlimit:4;stroke-dasharray:none"
           id="path1414" />
        <path
           class="st0"
           d="m 501.499,438.591 -138.158,-123.413 -47.98,47.98 123.403,138.168 c 12.548,16.234 35.144,13.848 55.447,-6.456 20.294,-20.294 23.532,-43.732 7.288,-56.279 z"
           style="fill:#000000;stroke-width:0.99935031;stroke-miterlimit:4;stroke-dasharray:none"
           id="path1416" />
      </g>
    </g>
    <path
       class="st0"
       d="M 231.2035,187.44134 C 221.67088,135.77563 177.66668,96.805077 126.32632,97.722047 69.476529,98.745397 24.845225,148.30726 26.843394,208.19516 c 1.997877,59.90296 49.872635,107.79712 106.733666,106.77691 24.16323,-0.43353 46.11474,-9.63604 63.21707,-24.67258 19.23254,-16.90953 32.33261,-41.19693 35.54923,-68.68837 l 11.26358,-0.21002 -1.13959,-34.16228 z m -26.41382,17.56904 c 1.44824,43.53282 -30.87643,79.43713 -72.20564,80.18242 -41.332549,0.74119 -76.020039,-33.96038 -77.469307,-77.5007 -1.448509,-43.5412 30.879862,-79.44097 72.205677,-80.18243 41.32882,-0.74487 76.01632,33.95668 77.46927,77.50071 z"
       style="opacity:1;fill:#000000;stroke-width:0.575376"
       id="path1412-0" />
    <path
       class="st0"
       d="m 102.21076,154.72118 c -20.45748,15.93705 -30.143575,44.83632 -24.811365,72.00185 0.509612,2.56624 2.719767,4.15929 4.94538,3.54235 2.220707,-0.61812 3.614134,-3.19866 3.109804,-5.76292 l -0.0013,0.004 c -4.590871,-23.30072 3.760545,-48.21684 21.305621,-61.86705 1.90534,-1.47614 2.42912,-4.45537 1.16719,-6.63782 -1.25308,-2.19132 -3.81794,-2.76592 -5.71539,-1.28069 z"
       style="opacity:1;fill:#000000;stroke-width:0.598934"
       id="path1414-2" />
    <path
       class="st0"
       d="m 169.16271,417.58096 c 57.49901,31.35268 122.35321,26.82793 162.55842,-9.75359 3.78964,-3.46896 3.41915,-9.86305 -0.86809,-14.28707 -4.28225,-4.41197 -10.8333,-5.1914 -14.62695,-1.7361 l 0.0108,-7.8e-4 c -34.46047,31.41577 -90.37639,35.31614 -139.65793,8.4106 -5.34086,-2.92747 -11.34409,-1.39795 -13.37562,3.40749 -2.05991,4.79363 0.6153,11.05818 5.96087,13.95974 z"
       style="opacity:1;fill:#000000;stroke-width:1.37235"
       id="path1414-2-3" />
    <rect
       style="fill:#000000;stroke:none;stroke-width:0;stroke-miterlimit:4;stroke-dasharray:none;stroke-dashoffset:10"
       id="rect851"
       width="40.663525"
       height="35.844269"
       x="231.70859"
       y="187.44135" />
  </g>
  <style
     type="text/css"
     id="style1410">
	.st0{fill:#4B4B4B;}
</style>
</svg>
